<?xml version="1.0" encoding="UTF-8"?>
<svg style="height:512px;width:512px" version="1.1" viewBox="0 0 512 512" xmlns="http://www.w3.org/2000/svg"><g class="card-burn" transform="matrix(1.215,0,0,1.215,-55.044,-79.095)" stroke-width=".82304"><path transform="matrix(.9 0 0 .9 25.6 25.6)" d="m280.69 64.92c-5.16-0.024-11.61 1.387-18.69 6.205-55.6 39.035-112.17 76.495-169.58 112.82-10.2 6.63-9.75 16.6 1.017 22.27l128.75 67.77c5.38 2.83 22.41 2.05 32.61-4.57l169.83-110.23c10.2-6.62 9.75-16.6-1.01-22.27-44.67-23.51-85.78-45.112-130.58-68.861 0 0-4.8-3.099-12.35-3.133zm6.42 27.547-13.51 69.373 113.61-14.69-2.84 15.22-113.77 14.88-13.67 70.23-25.64 3.53 13.83-70.43-117.03 15.31 3.21-15.66 116.86-15.1 13.67-69.568zm41.24 146.32-65.74 42.67c-14.56 9.45-37.13 10.48-52.5 2.39l-34.82-18.32-87.239 41.37c-10.983 5.2-10.69 13 0.66 17.35l121.24 46.62c11.35 4.37 29.49 3.66 40.48-1.54l166.99-79.19c10.98-5.2 10.68-13-0.67-17.36l-88.4-34zm93.62 65.09-165.39 78.44c-14.55 6.88-36.75 7.73-51.78 1.96l-120.99-46.52c-6.4 4.96-4.722 11.12 4.902 14.81l121.24 46.62c11.34 4.37 29.49 3.67 40.47-1.53l166.99-79.19c8.92-4.22 10.4-10.16 4.55-14.59zm0 28.32-165.39 78.44c-14.55 6.87-36.75 7.73-51.78 1.96l-120.99-46.53c-6.4 4.97-4.722 11.13 4.902 14.82l121.24 46.62c11.34 4.37 29.49 3.66 40.47-1.53l166.99-79.2c8.92-4.22 10.4-10.17 4.55-14.58zm0 28.32-165.39 78.43c-14.54 6.88-36.75 7.74-51.77 1.96l-121-46.51c-6.4 4.96-4.721 11.11 4.902 14.8l121.24 46.63c11.35 4.37 29.5 3.66 40.48-1.54l166.99-79.19c8.92-4.22 10.4-10.16 4.54-14.58zm-3.87 30.15-161.52 76.6c-14.54 6.88-36.75 7.74-51.77 1.96l-116.89-44.94c-10.853 5.2-10.52 12.95 0.789 17.29l121.24 46.62c11.35 4.36 29.49 3.66 40.48-1.54l167-79.19c10.53-4.98 10.68-12.36 0.67-16.8z" fill="#fff" stroke-width=".82304"/></g><g class="card-discard" transform="matrix(1.1174,0,0,1.1174,471.39,-30.063)" stroke-width=".89491"><path transform="matrix(.9 0 0 .9 25.6 25.6)" d="m150.79 479.8-85.27-185.08c-3.13-6.79-0.15-14.86 6.634-17.99l129.16-59.51c6.79-3.12 14.87-0.15 17.99 6.64l85.28 185.07c3.13 6.81 0.15 14.87-6.64 18l-129.15 59.51c-6.8 3.14-14.87 0.15-18-6.64zm26.17-69.31 15.32-44.52 44.52 15.32 7.66-22.25-44.52-15.32 15.32-44.52-22.25-7.66-15.33 44.51-44.51-15.32-7.66 22.26 44.52 15.32-15.33 44.52zm106.07-211.05c47.9-85.63-53.11-105.3-102.59-62.59l-38.9 51.35c-35.59 21.8-43.691-12.22-32.32-29.77l54.11-73.518 97.16-52.146c7.1-5.2 17.83-8.133 32.76-8.445l194.47 1.463 0.87 112.04-107.3-7.72c1.82 43.39-42.74 53.08-66.68 106.9l-13.82 46.38c-30.21-10.16-41.29-34.37-17.76-83.95zm-129.83-3.08 39.05-51.33c12.43-10.47 29.51-17.67 46.92-17.37-15.27 16.01-20.16 25.55-23.48 39.04-8 19.78-17.74 29.69-30.37 23.3-10.71 10.32-21.41 14.87-32.12 6.36z" fill="#fff" stroke-width=".80086"/></g><g class="card-draw" transform="matrix(1.1013,0,0,1.1013,1018.1,-25.939)" stroke-width=".908"><path transform="matrix(.9 0 0 .9 25.6 25.6)" d="m209.96 488.2-121.24-46.62c-11.308-4.34-11.643-12.09-0.79-17.29l116.88 44.94c15.02 5.78 37.23 4.92 51.77-1.96l161.52-76.6c10.02 4.44 9.87 11.82-0.67 16.8l-167 79.2c-10.98 5.19-29.12 5.9-40.47 1.53zm0-32.37-121.24-46.62c-9.623-3.69-11.303-9.85-4.903-14.81l120.99 46.51c15.02 5.78 37.23 4.92 51.77-1.96l165.39-78.43c5.86 4.42 4.38 10.36-4.54 14.58l-166.99 79.19c-10.98 5.2-29.13 5.91-40.48 1.54zm0-28.31-121.24-46.63c-9.624-3.69-11.302-9.85-4.902-14.81l120.99 46.52c15.02 5.77 37.23 4.91 51.77-1.96l165.39-78.44c5.86 4.42 4.38 10.36-4.54 14.58l-166.99 79.2c-10.98 5.2-29.13 5.9-40.48 1.54zm0-28.32-121.24-46.63c-9.624-3.69-11.302-9.85-4.902-14.81l120.99 46.52c15.02 5.78 37.23 4.92 51.77-1.96l165.39-78.44c5.86 4.43 4.38 10.37-4.54 14.59l-166.99 79.19c-10.98 5.2-29.13 5.9-40.48 1.54zm0-28.32-121.24-46.62c-11.35-4.36-11.643-12.15-0.66-17.36l87.24-41.37 34.82 18.32c15.37 8.09 37.94 7.06 52.5-2.39l65.74-42.67 88.41 34.01c11.34 4.35 11.65 12.16 0.66 17.35l-166.99 79.2c-10.98 5.19-29.13 5.9-40.48 1.53zm6.85-99.73-123.36-64.93c-10.767-5.67-11.217-15.65-1.018-22.27l105.11-68.23h25.85v64.96h58.67v-64.96h50.14l-27.48-41.388 118.91 62.588c10.77 5.67 11.21 15.64 1.02 22.26l-169.83 110.23c-10.2 6.62-27.23 7.4-38 1.73zm21.64-105.52v-64.96h-34.85l49.13-79.739 49.12 79.739h-34.85v64.96z" fill="#fff" stroke-width=".82446"/></g><g class="card-exchange" transform="matrix(1.2384,0,0,1.2384,1505,-61.032)" stroke-width=".80749"><path transform="matrix(.8 0 0 .8 51.2 51.2)" d="m258.15 20.822c-1.11 0-2.23 0.03-3.34 0.05-39.32 1.041-81.51 15.972-123.78 50.404l-6.03 4.91-5.73-5.25c-12.65-11.573-20.279-27.628-25.656-43.711-8.974 36.98-14.631 81.385-9.232 114.52 18.068 0.9 45.408-2.18 73.698-7.82 17.86-3.56 36.05-8.13 53.07-13.08-13.42-2.91-25.9-6.88-38.15-12.08l-16.09-6.83 14.91-9.126c46.37-28.393 80.96-40.686 120.24-35.553 33.11 4.327 69.36 20.867 119.07 47.269-25.37-36.312-62.24-64.735-104.73-76.992-15.4-4.443-31.55-6.828-48.24-6.719zm87.85 95.178c-46.67 0-46.66 0-46.66 46.67v186.73c0 9.59 0 17.19 0.41 23.24a664.8 664.8 0 0 1 50.66-12.23c24.64-4.91 48.36-8.22 67.91-8.41 6.52-0.1 12.57 0.23 18.04 0.92l6.31 0.79 1.36 6.21c2.46 11.27 3.67 23.45 3.91 36.06 38.04-0.19 38.06-3.06 38.06-46.65v-186.67c0-46.66 0-46.66-46.66-46.66a226.98 226.98 0 0 1 3.97 7.64l12.63 25.53-25.01-13.64c-13.08-7.15-25.16-13.64-36.45-19.53zm-281.94 0c-38.032 0.19-38.057 3.06-38.057 46.65v186.75c0 46.6 0 46.6 46.666 46.6a226.98 226.98 0 0 1-3.978-7.64l-12.624-25.54 25.004 13.65c13.085 7.14 25.167 13.63 36.447 19.53h48.48c46.67 0 46.67 0 46.67-46.67v-186.67c0-9.63-0-17.24-0.42-23.3a664.81 664.81 0 0 1-50.65 12.22c-32.86 6.55-64.076 10.25-85.956 7.49l-6.31-0.79-1.358-6.21c-2.464-11.27-3.673-23.45-3.914-36.06zm354.62 254.1c-17.54 0.25-40.82 3.2-64.75 7.97-17.86 3.56-36.05 8.13-53.06 13.07 13.42 2.92 25.89 6.89 38.14 12.09l16.09 6.83-14.91 9.13c-46.37 28.39-80.96 40.68-120.24 35.55-33.1-4.33-69.36-20.87-119.07-47.27 25.38 36.31 62.24 64.73 104.73 76.99 52.57 15.17 113.87 6.34 175.37-43.74l6.03-4.91 5.73 5.25c12.65 11.58 20.28 27.63 25.66 43.72 8.97-36.98 14.63-81.39 9.23-114.52-2.79-0.14-5.75-0.21-8.95-0.16z" fill="#fff" stroke-width=".65204"/></g><g class="card-pick" transform="matrix(1.2263,0,0,1.2263,2030.1,-57.938)" stroke-width=".81545"><path transform="matrix(.8 0 0 .8 51.2 51.2)" d="m331.09 488.95-101.23-47.05c-6.7-3.13-9.62-11.1-6.5-17.82l71.63-154.11c3.11-6.71 11.1-9.62 17.8-6.51l101.23 47.07c6.71 3.11 9.62 11.09 6.51 17.8l-71.64 154.11c-3.12 6.71-11.1 9.62-17.8 6.51zm-244.29-16.82-67.204-156.09c-2.927-6.79 0.218-14.68 7.004-17.6l33.275-14.33 41.575 156.25c3.99 14.94 19.32 23.84 34.27 19.86l33.14-8.82-64.44 27.75c-6.803 2.92-14.692-0.22-17.619-7.01zm28.77-35.53-43.7-164.24c-1.905-7.15 2.362-14.5 9.502-16.4l28.888-7.68-3.47 25.86c-2.06 15.32 8.68 29.43 24.01 31.49l67.77 9.14-27.59 92.93c-2.84 9.58-0.31 19.49 5.83 26.47l-44.84 11.93c-7.15 1.9-14.5-2.35-16.4-9.5zm92.06-4.04-13.6-4.05c-7.1-2.11-11.14-9.56-9.04-16.66l48.37-162.92c2.11-7.1 9.57-11.14 16.65-9.04l41.67 12.38h0.11-0.12c-4.19 2.76-7.68 6.68-9.94 11.55l-71.63 154.13c-2.19 4.73-2.96 9.77-2.47 14.61zm-4.85-131.96-70.03-9.44c-7.33-1-12.48-7.75-11.49-15.08l22.69-168.43c0.99-7.33 7.75-12.482 15.06-11.498l110.65 14.908c7.32 0.99 12.48 7.75 11.49 15.07l-13.96 103.62-13.02-3.86c-14.83-4.41-30.41 4.06-34.81 18.88l-16.57 55.82zm253.32-8.67-7.25-15.94 37.42-16.98 7.23 15.95-37.4 16.97zm-9.35-27.81-32.79-72.22c11.48-2.74 22.35-7.62 32.02-14.41l32.73 72.13-31.96 14.5zm-83.41-88.15c-41.01-16.18-61.15-62.59-44.98-103.6 16.18-40.993 62.61-61.15 103.6-44.977 41.01 16.18 61.15 62.604 44.98 103.62-16.18 41-62.6 61.15-103.61 44.96zm86.38-51.78c12.43-31.49-3.04-67.137-34.55-79.565-31.5-12.427-67.14 3.045-79.58 34.544-12.43 31.501 3.05 67.161 34.55 79.581 31.5 12.43 67.15-3.04 79.58-34.56zm-30.11-16.96c1.96-22.549-12.63-42.76-33.67-48.655 3.86-0.732 7.9-0.956 12.01-0.602 24.27 2.1 42.29 23.492 40.2 47.767-2.08 23.94-22.92 41.79-46.77 40.27 15.37-6.48 26.7-21.03 28.23-38.78z" fill="#fff" stroke-width=".66496"/></g><g class="card-pickup" transform="matrix(1.1174,0,0,1.1174,2579.9,-30.063)" stroke-width=".89491"><path transform="matrix(.9 0 0 .9 25.6 25.6)" d="m272.82 24.318c-14.93 0.312-25.66 3.246-32.77 8.446l-97.16 52.146-54.101 73.51c-11.373 17.56-3.275 51.58 32.321 29.78l38.9-51.35c49.47-42.715 150.48-23.04 102.59 62.59-23.53 49.58-12.46 73.79 17.76 83.95l13.81-46.38c23.95-53.83 68.5-63.51 66.68-106.9l107.3 7.72-0.86-112.04zm-54.09 103.34c-17.41-0.3-34.48 6.9-46.92 17.37l-39.04 51.33c10.71 8.51 21.41 3.96 32.12-6.36 12.63 6.39 22.37-3.52 30.37-23.3 3.31-13.49 8.21-23.03 23.47-39.04zm-32.62 88.32a13.49 13.49 0 0 0-5.23 1.24l-129.16 59.51c-6.784 3.13-9.763 11.2-6.633 17.99l85.272 185.08c3.13 6.78 11.2 9.78 18 6.63l129.15-59.5c6.79-3.14 9.78-11.2 6.65-18l-85.29-185.07c-2.34-5.1-7.47-8.04-12.75-7.88zm-29.76 50.06c7.79 0.12 14.91 2.06 21.09 5.85 10.76 6.6 18.63 20.93 19.64 35.75 0.7 10.19-1.71 17.84-12.55 39.88-3.88 7.88-5.64 15.27-5.07 21.35 0.46 4.97 0.78 5.86 3.64 9.85l3.13 4.38-1.75 0.98c-0.97 0.53-7.1 3.1-13.63 5.69-6.92 2.74-12.32 4.49-12.93 4.19-0.59-0.28-2.36-2.62-3.94-5.19-7.52-12.22-7.22-27.53 0.88-44.62 6.66-14.04 8.47-19.97 7.95-25.98-0.81-9.44-6.74-16.48-14.83-17.61-6.02-0.85-10.67 0.55-18.91 5.7-8.3 5.18-13.94 10.71-19.06 18.65-1.8 2.8-3.4 5.06-3.57 5.02-0.16-0-3.2-7.26-6.754-16.04l-6.46-15.97 3.23-3.66c5.804-6.6 11.754-11.17 22.224-17.07 13.44-7.57 26.27-11.31 37.67-11.15zm33.3 133.05c6.47 0.13 12.18 3.22 15.7 8.97 4.3 7.01 4.19 13.83-0.33 20.75-2.89 4.42-8.95 8.31-15.04 9.65-15.13 3.34-28.04-9.34-23.73-23.31 1.82-5.88 5.33-9.93 11.28-13.02 4.1-2.12 8.25-3.11 12.12-3.04z" fill="#fff" stroke-width=".80086"/></g><g class="" transform="matrix(1.1174,0,0,1.1174,3101.9,-30.063)" stroke-width=".89491"><path transform="matrix(.9 0 0 .9 25.6 25.6)" d="m272.82 24.318c-14.93 0.312-25.66 3.246-32.77 8.446l-97.16 52.146-54.101 73.51c-11.373 17.56-3.276 51.58 32.321 29.78l38.9-51.35c49.47-42.715 150.48-23.04 102.59 62.59-23.53 49.58-12.46 73.79 17.76 83.95l13.81-46.38c23.95-53.83 68.5-63.51 66.68-106.9l107.3 7.72-0.86-112.04zm-54.09 103.34c-17.41-0.3-34.49 6.9-46.92 17.37l-39.04 51.33c10.71 8.51 21.41 3.96 32.12-6.36 12.63 6.39 22.37-3.52 30.37-23.3 3.31-13.49 8.21-23.03 23.47-39.04zm-32.62 88.32a13.49 13.49 0 0 0-5.23 1.24l-129.16 59.51c-6.784 3.13-9.763 11.2-6.633 17.99l85.272 185.08c3.13 6.78 11.2 9.78 18 6.63l129.15-59.5c6.79-3.14 9.77-11.2 6.64-18l-85.28-185.07c-2.34-5.1-7.47-8.04-12.75-7.88z" fill="#fff" stroke-width=".80086"/></g><g class="" transform="matrix(1.0901,0,0,1.0901,3630.9,-24.12)" stroke-width=".91738"><path transform="matrix(.9 0 0 .9 25.6 25.6)" d="m386.69 487.75-119.24-55.42c-7.9-3.68-11.33-13.07-7.66-20.98l84.37-181.52c3.67-7.9 13.07-11.33 20.97-7.67l119.24 55.44c7.9 3.67 11.33 13.06 7.65 20.96l-84.37 181.52c-3.67 7.91-13.07 11.34-20.97 7.67zm-287.74-19.81-79.16-183.86c-3.448-8 0.255-17.3 8.25-20.74l39.196-16.87 48.974 184.04c4.69 17.59 22.76 28.08 40.36 23.39l39.03-10.39-75.9 32.69c-8.01 3.44-17.3-0.26-20.748-8.26zm33.89-41.86-51.478-193.45c-2.24-8.42 2.78-17.07 11.19-19.31l34.028-9.05-4.09 30.47c-2.43 18.03 10.22 34.65 28.28 37.08l79.83 10.76-32.5 109.47c-3.34 11.28-0.37 22.95 6.87 31.18l-52.82 14.05c-8.42 2.24-17.07-2.77-19.31-11.2zm108.43-4.76-16.02-4.76c-8.36-2.49-13.12-11.26-10.64-19.62l56.97-191.9c2.48-8.36 11.28-13.12 19.62-10.65l49.07 14.58h0.12-0.13c-4.93 3.25-9.04 7.86-11.71 13.6l-84.38 181.53c-2.59 5.59-3.49 11.52-2.91 17.22zm-5.71-155.43-82.48-11.11c-8.64-1.17-14.71-9.12-13.54-17.76l26.73-198.39c1.16-8.633 9.12-14.698 17.74-13.538l130.33 17.563c8.63 1.166 14.69 9.125 13.53 17.752l-16.45 122.05-15.33-4.56c-17.46-5.19-35.82 4.79-41 22.24zm-5.19-31.46c4.67-3.05 7.48-7.43 8.42-13.14 0.94-5.63-0.35-10.62-3.86-14.95-3.51-4.41-8.39-7.14-14.66-8.17-6.34-1.06-11.93-0.1-16.75 2.95-4.83 3.03-7.69 7.32-8.61 12.87-0.9 5.39 0.42 10.42 3.97 15.08 3.56 4.51 8.52 7.29 14.86 8.34 6.35 1.06 11.89 0.1 16.63-2.98zm25.98-81.24c4.69-2.72 8.89-5.43 12.6-8.12 3.7-2.68 6.91-5.58 9.63-8.72 2.72-3.13 4.97-6.57 6.74-10.31 1.76-3.74 3.05-8.03 3.85-12.86 1.26-7.62 1.02-14.36-0.74-20.236-1.75-5.87-4.69-10.94-8.83-15.22-4.14-4.27-9.24-7.753-15.32-10.43-6.07-2.684-12.8-4.633-20.17-5.86-7.7-1.28-15.3-1.602-22.82-0.977-7.51 0.614-14.63 2.247-21.34 4.88l-5.95 35.803c6.81-4.251 13.77-7.105 20.85-8.568 7.09-1.475 13.73-1.7 19.91-0.668 21.47 4.092 19.44 24.896 8.76 34.026-5.65 4.48-11.33 8.81-15.94 11.35-10.48 5.91-27.69 23.12-22.54 45.14l31.28 5.21c-7.11-17.76 11.67-29.47 20.03-34.44z" fill="#fff" stroke-width=".84159"/></g><g class="cog" transform="matrix(1.081,0,0,1.081,4154.7,-22.943)" stroke-width=".92511"><path transform="matrix(.9 0 0 .9 25.6 25.6)" d="m234.88 18.78c-26.09 2.367-51.56 8.56-74.88 18.782 15.37 32.763 14.23 66.708-6.72 82.408-20.83 15.62-54.05 7.96-81.119-15.69-16.246 19.45-29.336 41.36-38.875 65.62 33.83 12.34 56.635 37.67 52.94 63.5-3.698 25.84-32.697 43.74-68.626 46.1 2.338 25.8 8.91 50.78 18.937 73.87 17.81-8.18 35.793-11.09 51.095-8.93 13.028 1.87 23.928 7.01 31.158 16.65 15.81 21.1 7.6 54.72-16.78 81.97 19.51 16.35 42.21 29.45 66.59 39.03 12.33-33.83 37.66-56.63 63.5-52.94 25.85 3.7 43.74 32.7 46.1 68.63 26.08-2.37 51.55-8.56 74.87-18.78-15.77-33-14.26-67.59 6.84-83.41 9.64-7.23 22.57-9.02 35.6-7.12 15.11 2.16 31.19 10.25 45.56 22.78 16.09-19.35 29.4-41.51 38.88-65.59-33.83-12.34-56.64-37.66-52.94-63.5 3.69-25.85 32.66-43.78 68.59-46.13-2.36-25.94-8.77-50.66-18.9-73.87-32.62 15.11-66.66 13.14-82.29-7.69-15.69-20.94-7.25-53.86 16.69-81.001-19.52-16.352-42.25-29.447-66.62-39.032-12.34 33.828-37.66 56.66-63.5 52.968-25.85-3.693-43.75-32.696-46.1-68.625zm21.66 95.13c79.62 0 144.38 64.75 144.38 144.38 0 79.62-64.75 144.38-144.38 144.38s-144.37-64.75-144.37-144.38 64.75-144.37 144.38-144.37zm0 18.68c-69.53 0-125.69 56.17-125.69 125.69 0 69.53 56.16 125.69 125.69 125.69 69.52 0 125.69-56.16 125.69-125.69 0-69.52-56.17-125.69-125.69-125.69zm0 15.13c61.09 0 110.62 49.53 110.62 110.62s-49.53 110.62-110.62 110.62-110.62-49.53-110.62-110.63 49.53-110.62 110.62-110.62z" fill="#fff" stroke-width=".85582"/></g><g class="halt" transform="matrix(1.1449,0,0,1.1449,4660.9,-37.103)" stroke-width=".87342"><path transform="matrix(.9 0 0 .9 25.6 25.6)" d="m389.92 128.73v100.84h-22.8v-158.5a17.11 17.11 0 0 0-17.11-17.11h-11.87a17.11 17.11 0 0 0-17.11 17.11v158.5h-22.69v-182.57a17.11 17.11 0 0 0-17.11-17.11h-11.87a17.11 17.11 0 0 0-17.11 17.11v182.57h-22.75v-152.24a17.11 17.11 0 0 0-17.11-17.11h-11.86a17.11 17.11 0 0 0-17.11 17.11v263.87l-63.86-51.14a23.385 23.385 0 0 0-30.74 1.32l-5.567 5.31a23.385 23.385 0 0 0-2.01 31.68l102.19 125.65a72.028 72.028 0 0 0 57.09 28.1h60.85a134.64 134.64 0 0 0 134.63-134.62v-218.77a17.11 17.11 0 0 0-17.11-17.11h-11.86a17.11 17.11 0 0 0-17.11 17.11z" fill="#fff" stroke-width=".76285"/></g><g class="joker" transform="matrix(1.513,0,0,1.513,5087.5,-131.33)" stroke-width=".66094"><path transform="matrix(.7 0 0 .7 76.8 76.8)" d="m119.44 36c-16.13 0-29.204 17.237-29.204 38.5v363c0 21.26 13.074 38.5 29.204 38.5h275.29c16.13 0 29.2-17.24 29.2-38.5v-363c0-21.263-13.07-38.5-29.2-38.5zm26.37 10.951 11 32.856 34.65 0.312-27.85 20.621 10.41 33.05-28.21-20.12-28.22 20.11 10.41-33.04-27.85-20.62 34.65-0.312zm218.17 114.89c7.13 9.46 12.74 20.69 16.83 32.04 3.8 10.54 6.2 21.21 6.67 31.02-0.16 19.02-3.92 23.27-14.56 36.93l-6.7-11.48c-10.85-13.1-30.78-48.4-47.38-43.67-6.53 6.11-9 13.37-10.32 20.8 2.9 8.8 4.48 18.43 4.48 28.52 0 15.29-3.62 29.54-10 41.42 22.65 4.53 57.93 19.33 57.98 39.22-0.27 3.78-1.84 7.68-4.36 10.42-10.75 12.53-36.96 4.12-45.2 10.07 0.79 6.95 4.11 14.12 4.35 20.18 0.14 4.36-1.77 10.57-6.51 13.99-5.67 4.09-12.97 4.55-18.52 3.05-10.8-2.12-18.74-14.7-34.74-17.35-13.54 3.49-22.41 13.87-34.74 17.35-5.55 1.5-12.85 1.04-18.52-3.05-4.74-3.42-6.65-9.64-6.51-13.99-0.1-7.15 4.11-13.8 4.36-20.18-15.75-7.79-33.82 1.97-45.21-10.07-2.52-2.74-4.09-6.64-4.36-10.42 6.15-27.34 35.38-34.68 57.98-39.22-6.38-11.88-10-26.13-10-41.42 0-11.49 2.05-22.38 5.76-32.13-2.35-7.93-3.44-15.99-9.43-22.45-8.76-0.92-14.08 6.9-17.85 12.63-11.68 19.5-18.71 30.61-32.88 46.2-16.6-23.4-19.31-49.29-13.15-70.99 6.06-20.33 19.17-38.8 37.92-47.93 21.22-9.76 39.88-10.03 58.89 0.21 5.16-13.06 10.4-25.65 18.03-36.21 9.63-13.311 23.8-25.632 43.71-25.296 38.8 0.656 73.99 51.156 73.98 81.806zm-72.22-63.892c-35.76 2.412-44.77 44.742-55.19 71.292l-9.45-7.09c-18.42-12.31-31.07-13.73-49.87-4.63-12.93 6.29-23.7 20.62-28.55 36.88-3.38 11.33-3.77 23.23-0.95 33.65 9.45-13.55 15.8-30.08 28.31-39.18 7.49-7.98 26.27-8.5 35.45 3.9 4.84 7.02 7.44 14.54 9.5 22.23h72.17c0.59-1.94 1.07-3.76 2.02-6.03 2.95-7.07 7.76-16.27 18.39-19.51 18.09-3.86 32.49 7.11 43.5 18.52 4.52 4.71 8.49 9.69 12.1 14.51-0.69-6.79-2.48-14.65-5.31-22.5-13.13-36.71-37.89-51.03-70.39-32.01 2.56-16.43 16.87-35.72 46.25-26.97-9.09-17.13-30.36-42.467-47.98-43.062zm-71.12 135.05c-2.31 6.96-3.64 14.75-3.64 23 0 15.85 4.89 30.03 12.26 39.86 7.37 9.82 16.73 15.14 26.74 15.14s19.37-5.32 26.74-15.14c7.37-9.83 12.26-24.01 12.26-39.86 0-8.25-1.33-16.04-3.64-23zm11.36 47h48s-8 14-24 14-24-14-24-14zm-11.14 33.57c-13.86 3.34-50.37 8.9-51.84 21.42 9.62 1.94 20.44 0.83 29 2.23 5.99 1.02 12.82 3.32 17.28 9.52 3.38 4.68 3.58 10.1 3.04 14.21-0.54 5.89-3.32 10.56-3.98 16.32 15.96-2.59 28.27-17.53 41.64-18.27 16-0.7 29.31 17.4 41.64 18.27-0.9-5.59-3.27-11.16-3.98-16.32-0.54-4.11-0.34-9.53 3.04-14.21 4.46-6.2 11.29-8.5 17.28-9.52 9.75-2.23 19.98 0.4 29-2.23-5.77-13.13-39.81-19.46-51.84-21.42-9.47 9.44-21.69 15.43-35.14 15.43s-25.66-5.99-35.14-15.43zm117.12 64.65 28.22 20.11 28.21-20.11-10.41 33.04 27.85 20.62-34.65 0.31-11.01 32.86-11-32.86-34.65-0.31 27.85-20.62z" fill="#fff" stroke-width=".43685"/></g><g class="scales" transform="matrix(1.0748,0,0,1.0748,5722,-26.354)" stroke-width=".93042"><path transform="matrix(.9 0 0 .9 25.6 25.6)" d="m254.47 53.094s-4.81 37.12-49.5 49.496c-44.69 12.38-129.28 0-129.28 0l-14.345 13.19 8.187 9.16-1.093 2.87-51.843 137.31-0.594 1.6v1.71c0 18.9 8.253 34.25 20.344 44 12.09 9.76 27.563 14.32 42.937 14.32 15.376 0 30.877-4.56 42.967-14.32 12.09-9.75 20.35-25.09 20.35-44v-1.84l-0.69-1.69-54.938-134.63c23.948-3 80.868-8.54 115.5 1.54 23.07 6.71 36.15 20.34 43.44 31.97l-35.13 190.69 21.41 30.31c-17.75 7.75-32.59 24.84-37.56 51.34-56.08 6.2-95.473 20.74-95.473 37.69h311.88c0-16.95-39.39-31.49-95.47-37.69-4.91-26.6-19.57-44.11-37.19-51.91l21-29.75-35.37-192.19c7.45-11.27 20.38-24.04 42.47-30.46 34.95-10.17 92.61-4.42 116.16-1.44l-50.88 134.75-0.62 1.59v1.72c0 18.9 8.25 34.24 20.34 44s27.59 14.31 42.97 14.31c15.37 0 30.87-4.55 42.97-14.31 12.09-9.76 20.34-25.09 20.34-44v-1.84l-0.69-1.69-56.06-137.34-0.94-2.28 8.79-8.44-15.6-14.25s-84.55 12.38-129.25 0c-44.69-12.378-49.53-49.498-49.53-49.498zm-176.94 103.56 44.22 108.38h-85.156l40.936-108.37zm355.16 0 44.22 108.38h-85.19l40.97-108.37z" fill="#fff" stroke-width=".86568"/></g><g class="sprint" transform="matrix(1.4092,0,0,1.4029,6157.4,-100.79)" stroke-width=".71121"><path transform="matrix(.7 0 0 .7 76.8 76.8)" d="m169.53 16.344 89.82 71.656 77.65 4.28-1.03 18.66-161.38-8.91-118.78-4.904 227.28 68.034-197.72 246.75-14.53-17.66-49.22 96.63 248.69-202.78 51.81 11.59-38.78 40.59-12.84-10.78-57.28 84.12 231.62-140.15-116.84-32.41 100.22-81.72c1.13 0.46 2.3 0.9 3.5 1.22 23.32 6.25 49.76-16.84 59.06-51.54 9.29-34.691-2.08-67.87-25.41-74.12-23.32-6.25-49.76 16.802-59.06 51.5-1.47 5.476-2.41 10.918-2.88 16.22l-233.91-86.282z" fill="#fff" stroke-width=".60834"/></g><g class="stack" transform="matrix(1.1058,0,0,1.1058,6758.9,-27.086)" stroke-width=".90432"><path transform="matrix(.9 0 0 .9 25.6 25.6)" d="M 256,18.365 50.14,136 256,253.63 461.86,136 Z M 102,186.37 50.14,216 256,333.63 461.86,216 410,186.37 l -154,88 z m 0,80 L 50.14,296 256,413.63 461.86,296 410,266.37 l -154,88 z m 0,80 L 50.14,376 256,493.63 461.86,376 410,346.37 l -154,88 z" fill="#fff" stroke-width=".81779"/></g><g class="tabletop-players" transform="translate(.0025 15.507)"><g class="" transform="translate(7308,63.262)"><path d="m134.87 113.46c-7.47 0-15.14 2.98-22.38 8.66-9.66 7.58-18.06 20.02-22.162 35.33s-3.047 30.27 1.527 41.67c4.575 11.39 12.235 18.96 21.915 21.55 9.67 2.59 20.09-0.13 29.75-7.71 9.65-7.58 18.05-20.02 22.15-35.33s3.05-30.27-1.52-41.67c-4.58-11.39-12.24-18.96-21.91-21.55-2.42-0.65-4.89-0.96-7.37-0.95zm242.26 0c-2.48 0-4.95 0.31-7.37 0.95-9.67 2.59-17.33 10.16-21.91 21.55-4.57 11.4-5.63 26.37-1.52 41.67 4.1 15.31 12.49 27.75 22.15 35.33s20.08 10.3 29.75 7.7c9.67-2.59 17.34-10.15 21.92-21.55 4.57-11.39 5.62-26.36 1.52-41.67-4.1-15.3-12.5-27.74-22.15-35.32-7.25-5.68-14.92-8.64-22.38-8.66zm-288.74 112.58c-10.146 2.13-18.06 6.48-24.82 12.65-9.882 9.02-17.314 22.55-23.03 39.7-10.6 31.8-15.044 75.34-22.062 120.15h132.5c0-44.9-0.51-88.92-6.8-121.28-3.21-16.47-7.97-29.79-14.1-38.57-6.87 1.34-13.97 1.24-20.97-0.63-8.01-2.15-14.975-6.38-20.713-12.02zm335.22 0c-5.74 5.64-12.7 9.87-20.72 12.02-6.99 1.87-14.08 1.97-20.96 0.63-6.12 8.79-10.89 22.1-14.1 38.57-6.29 32.36-6.76 76.38-6.8 121.28h132.49c-7.01-44.81-11.46-88.35-22.06-120.15-5.71-17.15-13.14-30.68-23.03-39.7-6.75-6.17-14.67-10.52-24.82-12.65zm-240.61 69.5v23h18v-23zm80 0v23h18v-23zm-94.86 41c0.18 4.61 0.32 9.29 0.43 14h174.86c0.11-4.71 0.25-9.39 0.43-14z" fill="#fff"/></g><g class="" transform="matrix(1.9069,0,0,1.9069,7410.3,-26.069)" stroke-width=".5244"><g transform="matrix(.5 0 0 .5 16 16)" fill="#fff"><circle cx="128" cy="128" r="101" fill-opacity="0" stroke="#fff" stroke-width="23.074"/><path d="m119 64v55h-55v18h55v55h18v-55h55v-18h-55v-55z" stroke-width="12.586"/></g></g></g><g class="trash-can" transform="matrix(1.6508,0,0,1.6508,7663.4,-211.67)" stroke-width=".6058"><path transform="matrix(.7 0 0 .7 76.8 76.8)" d="m199 103v50h-78v30h270v-30h-78v-50zm18 18h78v32h-78zm-79 80 30.1 286h175.8l30.1-286zm62.34 13.38 0.64 8.98 16 224 0.64 8.98-17.96 1.28-0.64-8.98-16-224-0.64-8.98zm111.32 0 17.96 1.28-0.64 8.98-16 224-0.64 8.98-17.96-1.28 0.64-8.98 16-224zm-64.66 0.62h18v242h-18z" fill="#fff" stroke-width=".6058"/></g><g class="scales-exclaim" transform="matrix(1.0748,0,0,1.0748,8332,-26.36)" stroke-width=".90861"><path transform="matrix(.9 0 0 .9 25.6 25.6)" d="m254.47 53.094s-4.81 37.12-49.5 49.496c-44.69 12.38-129.28 0-129.28 0l-14.345 13.19 8.187 9.16-1.093 2.87-51.843 137.31-0.594 1.6v1.71c0 18.9 8.253 34.25 20.344 44 12.09 9.76 27.563 14.32 42.937 14.32 15.376 0 30.877-4.56 42.967-14.32 12.09-9.75 20.35-25.09 20.35-44v-1.84l-0.69-1.69-54.938-134.63c23.948-3 80.868-8.54 115.5 1.54 23.07 6.71 36.15 20.34 43.44 31.97l-35.13 190.69 21.41 30.31c-17.75 7.75-32.59 24.84-37.56 51.34-56.08 6.2-95.473 20.74-95.473 37.69h311.88c0-16.95-39.39-31.49-95.47-37.69-4.91-26.6-19.57-44.11-37.19-51.91l21-29.75-35.37-192.19c7.45-11.27 20.38-24.04 42.47-30.46 34.95-10.17 92.61-4.42 116.16-1.44l-50.88 134.75-0.62 1.59v1.72c0 18.9 8.25 34.24 20.34 44s27.59 14.31 42.97 14.31c15.37 0 30.87-4.55 42.97-14.31 12.09-9.76 20.34-25.09 20.34-44v-1.84l-0.69-1.69-56.06-137.34-0.94-2.28 8.79-8.44-15.6-14.25s-84.55 12.38-129.25 0c-44.69-12.378-49.53-49.498-49.53-49.498zm-176.94 103.56 44.22 108.38h-85.156l40.936-108.37zm355.16 0 44.22 108.38h-85.19l40.97-108.37z" fill="#fff" stroke-width=".93041"/><g transform="matrix(.66691 0 0 .66691 314.94 308.28)" style="height:512px;width:512px"><circle cx="128" cy="128" r="128" fill="#fff" stroke-width=".97657"/><circle cx="128" cy="128" r="101" fill="#fff" stroke="#ff4a00" stroke-width="17.578"/><path d="m111.1 58.03h33.8v53.67l-4.8 39.2h-24.2l-4.8-39.2zm0 106.57h33.8v33.4h-33.8z" fill="#ff4a00" stroke-width=".97657"/></g></g></svg>
