<?xml version="1.0" encoding="UTF-8" standalone="no"?>
<!-- Created with Inkscape (http://www.inkscape.org/) -->

<svg
   width="32"
   height="32"
   viewBox="0 0 0.33332 0.33333"
   version="1.1"
   id="svg5"
   inkscape:version="1.4 (e7c3feb1, 2024-10-09)"
   sodipodi:docname="icon.svg"
   xml:space="preserve"
   xmlns:inkscape="http://www.inkscape.org/namespaces/inkscape"
   xmlns:sodipodi="http://sodipodi.sourceforge.net/DTD/sodipodi-0.dtd"
   xmlns:xlink="http://www.w3.org/1999/xlink"
   xmlns="http://www.w3.org/2000/svg"
   xmlns:svg="http://www.w3.org/2000/svg"><sodipodi:namedview
     id="namedview7"
     pagecolor="#ffffff"
     bordercolor="#000000"
     borderopacity="1"
     inkscape:showpageshadow="true"
     inkscape:pageopacity="0"
     inkscape:pagecheckerboard="false"
     inkscape:deskcolor="#ffffff"
     inkscape:document-units="mm"
     showgrid="false"
     inkscape:zoom="10.24"
     inkscape:cx="34.912"
     inkscape:cy="32.617"
     inkscape:current-layer="layer1" /><defs
     id="defs2"><linearGradient
       id="linearGradient83516"
       inkscape:collect="always"><stop
         style="stop-color:#fceaac;stop-opacity:1;"
         offset="0"
         id="stop83516" /><stop
         style="stop-color:#86713a;stop-opacity:1;"
         offset="1"
         id="stop83517" /></linearGradient><clipPath
       clipPathUnits="userSpaceOnUse"
       id="clipPath14489"><circle
         style="display:inline;fill:none;fill-rule:evenodd;stroke:#000000;stroke-width:0.264591;stroke-opacity:1"
         id="circle14489"
         cx="81.037"
         cy="325.75"
         r="7.8507" /></clipPath><linearGradient
       inkscape:collect="always"
       xlink:href="#linearGradient83516"
       id="linearGradient83517"
       x1="0.75955"
       y1="363.95"
       x2="0.75955"
       y2="372.91"
       gradientUnits="userSpaceOnUse" /><linearGradient
       inkscape:collect="always"
       xlink:href="#linearGradient83516"
       id="linearGradient83518"
       gradientUnits="userSpaceOnUse"
       x1="0.75955"
       y1="363.95"
       x2="0.75955"
       y2="372.91"
       gradientTransform="matrix(0.83488,0,0,0.83487,-0.38335,59.897)" /><linearGradient
       inkscape:collect="always"
       xlink:href="#linearGradient83516"
       id="linearGradient83519"
       gradientUnits="userSpaceOnUse"
       x1="0.75955"
       y1="363.95"
       x2="0.75955"
       y2="372.91" /><linearGradient
       inkscape:collect="always"
       xlink:href="#linearGradient83516"
       id="linearGradient83520"
       gradientUnits="userSpaceOnUse"
       x1="0.75955"
       y1="363.95"
       x2="0.75955"
       y2="372.91" /><linearGradient
       inkscape:collect="always"
       xlink:href="#linearGradient83516"
       id="linearGradient83521"
       gradientUnits="userSpaceOnUse"
       x1="0.75955"
       y1="363.95"
       x2="0.75955"
       y2="372.91" /><linearGradient
       inkscape:collect="always"
       xlink:href="#linearGradient83516"
       id="linearGradient83522"
       gradientUnits="userSpaceOnUse"
       x1="0.75955"
       y1="363.95"
       x2="0.75955"
       y2="372.91" /><linearGradient
       inkscape:collect="always"
       xlink:href="#linearGradient83516"
       id="linearGradient83523"
       gradientUnits="userSpaceOnUse"
       x1="0.75955"
       y1="363.95"
       x2="0.75955"
       y2="372.91" /><linearGradient
       inkscape:collect="always"
       xlink:href="#linearGradient83516"
       id="linearGradient83524"
       gradientUnits="userSpaceOnUse"
       x1="0.75955"
       y1="363.95"
       x2="0.75955"
       y2="372.91" /></defs><g
     inkscape:label="Layer 1"
     inkscape:groupmode="layer"
     id="layer1"
     transform="translate(25.573,21.664)"><g
       id="g83516"
       transform="matrix(0.02132,0,0,0.02367,-25.423,-30.22)"
       style="fill:url(#linearGradient83517);fill-opacity:1;stroke:#564b33;stroke-width:0.139123;stroke-opacity:1"><ellipse
         style="opacity:1;fill:url(#linearGradient83518);fill-opacity:1;fill-rule:evenodd;stroke:#564b33;stroke-width:0.139123;stroke-opacity:1"
         id="path83509"
         cx="-1.9988"
         cy="362.66"
         rx="0.68324"
         ry="0.68323" /><path
         style="opacity:1;fill:url(#linearGradient83519);fill-opacity:1;stroke:#564b33;stroke-width:0.139123;stroke-linecap:butt;stroke-linejoin:miter;stroke-opacity:1"
         d="m -1.4456,363.57 h 0.3365 l 1.23148,1.75 -0.67986,0.46 h -0.24865 c -0.17114,-0.42 -0.32847,-0.83 -0.50007,-1.25 l -0.2065,-0.57 z"
         id="path83511"
         sodipodi:nodetypes="cccccccc" /><path
         style="opacity:1;fill:url(#linearGradient83520);fill-opacity:1;stroke:#564b33;stroke-width:0.139123;stroke-linecap:butt;stroke-linejoin:miter;stroke-opacity:1"
         d="m -1.6773,364.42 0.5221,1.44 -0.314,0.17 -0.3591,2.1 1.66796,-0.1 1.48714,3.24 -9e-4,0.34 0.1707,0.12 0.8374,2 -1.1005,0.95 H 0.22272 l -1.25042,-1.32 -0.057,-0.74 H -1.208 l -0.1994,0.4 -1.0283,-1.38 -0.4853,-1 -0.2743,-0.9 -0.092,-0.83 0.7468,-0.96 -0.1,-0.1 -0.5416,0.42 -0.3145,-0.15 -0.186,-3.21 z"
         id="path83512"
         sodipodi:nodetypes="ccccccccccccccccccccccccc" /><path
         style="opacity:1;fill:url(#linearGradient83521);fill-opacity:1;stroke:#564b33;stroke-width:0.139123;stroke-linecap:butt;stroke-linejoin:miter;stroke-opacity:1"
         d="m -0.99432,366.34 0.19108,0.11 0.009,1.24 -0.23076,0.1 -0.3595,-0.1 0.1836,-1.21 z"
         id="path83513"
         sodipodi:nodetypes="ccccccc" /><path
         style="opacity:1;fill:url(#linearGradient83522);fill-opacity:1;stroke:#564b33;stroke-width:0.139123;stroke-linecap:butt;stroke-linejoin:miter;stroke-opacity:1"
         d="M 0.81943,365.3 H 1.0981 l 0.9676,0.34 0.01,0.31 -0.1132,0.18 H 1.6266 L 0.77234,365.6 Z"
         id="path83514"
         sodipodi:nodetypes="cccccccc" /><path
         style="opacity:1;fill:url(#linearGradient83523);fill-opacity:1;stroke:#564b33;stroke-width:0.139123;stroke-linecap:butt;stroke-linejoin:miter;stroke-opacity:1"
         d="m -0.27535,366.58 0.81075,-0.48 0.25073,0.11 1.29657,1.83 -0.075,0.51 h 0.4234 l 2.0407,2.89 0.6626,0.89 -0.01,2.6 -0.1986,0.1 -0.9554,-0.53 -0.094,-0.12 -0.07,-0.71 h -0.092 l -0.1531,0.49 H 3.3147 L 2.863,373.81 2.5557,373.28 2.5017,373 l 0.044,-0.17 0.1386,-0.1 0.043,-0.1 -0.5511,-0.32 -1.54291,-3.41 -0.96812,-2.23 z"
         id="path83515"
         sodipodi:nodetypes="cccccccccccccccccccccccccc" /><path
         style="opacity:1;fill:url(#linearGradient83524);fill-opacity:1;stroke:#564b33;stroke-width:0.139123;stroke-linecap:butt;stroke-linejoin:miter;stroke-opacity:1"
         d="M 0.03768,364.03 H 1.5493 l 0.9858,0.14 1.1252,0.31 1.543,0.44 v 1.71 l -0.1029,0.85 -0.055,0.9 -0.048,0.61 -0.2016,0.93 h -0.076 l -0.054,0.4 -0.1326,0.1 H 4.3104 l -0.01,-0.17 -0.2609,-0.36 -0.4262,-0.48 -0.3244,-0.48 -0.2921,-0.37 -0.3484,-0.45 -0.3353,-0.48 -0.265,-0.37 -0.2499,-0.3 -0.01,-0.28 0.3516,-0.5 0.444,-0.71 c 0,0 -0.3049,-0.11 -0.3265,-0.11 -0.022,0 -0.7786,-0.25 -0.7786,-0.25 l -0.49575,-0.14 h -0.5175 l -0.55881,-0.69 z"
         id="path83516"
         sodipodi:nodetypes="ccccccccccccccccccccccccccsccccc" /></g></g></svg>
