<svg xmlns="http://www.w3.org/2000/svg" height="24" width="24">
  <g
     class="tabletop-players-remove"
     transform="translate(-7308,15.507)"
     id="g18"
     style="display:inline">
    <circle
       cx="128"
       cy="128"
       r="101"
       fill-opacity="0"
       stroke="#ffffff"
       stroke-width="23.074"
       id="circle15"
       style="display:inline"
       transform="matrix(0.95345,0,0,0.95345,7440.8,4.441)" />
    <path
       d="m 134.87,113.46 c -7.47,0 -15.14,2.98 -22.38,8.66 -9.66,7.58 -18.06,20.02 -22.162,35.33 -4.102,15.31 -3.047,30.27 1.527,41.67 4.575,11.39 12.235,18.96 21.915,21.55 9.67,2.59 20.09,-0.13 29.75,-7.71 9.65,-7.58 18.05,-20.02 22.15,-35.33 4.1,-15.31 3.05,-30.27 -1.52,-41.67 -4.58,-11.39 -12.24,-18.96 -21.91,-21.55 -2.42,-0.65 -4.89,-0.96 -7.37,-0.95 z m 242.26,0 c -2.48,0 -4.95,0.31 -7.37,0.95 -9.67,2.59 -17.33,10.16 -21.91,21.55 -4.57,11.4 -5.63,26.37 -1.52,41.67 4.1,15.31 12.49,27.75 22.15,35.33 9.66,7.58 20.08,10.3 29.75,7.7 9.67,-2.59 17.34,-10.15 21.92,-21.55 4.57,-11.39 5.62,-26.36 1.52,-41.67 -4.1,-15.3 -12.5,-27.74 -22.15,-35.32 -7.25,-5.68 -14.92,-8.64 -22.38,-8.66 z M 88.39,226.04 c -10.146,2.13 -18.06,6.48 -24.82,12.65 -9.882,9.02 -17.314,22.55 -23.03,39.7 -10.6,31.8 -15.044,75.34 -22.062,120.15 H 150.98 c 0,-44.9 -0.51,-88.92 -6.8,-121.28 -3.21,-16.47 -7.97,-29.79 -14.1,-38.57 -6.87,1.34 -13.97,1.24 -20.97,-0.63 -8.01,-2.15 -14.979,-6.38 -20.717,-12.02 z m 335.22,0 c -5.74,5.64 -12.7,9.87 -20.72,12.02 -6.99,1.87 -14.08,1.97 -20.96,0.63 -6.12,8.79 -10.89,22.1 -14.1,38.57 -6.29,32.36 -6.76,76.38 -6.8,121.28 h 132.49 c -7.01,-44.81 -11.46,-88.35 -22.06,-120.15 -5.71,-17.15 -13.14,-30.68 -23.03,-39.7 -6.75,-6.17 -14.67,-10.52 -24.82,-12.65 z M 183,295.54 v 23 h 18 v -23 z m 80,0 v 23 h 18 v -23 z m -94.86,41 c 0.18,4.61 0.32,9.29 0.43,14 h 174.86 c 0.11,-4.71 0.25,-9.39 0.43,-14 z"
       fill="#ffffff"
       id="path15"
       style="display:inline"
       transform="translate(7308,63.262)" />
    <path
       d="M 57.299,117.99 V 138 H 198.7 v -20.01 z"
       stroke-width="12.5824"
       id="path16"
       style="display:inline;fill:#ffffff;fill-opacity:1"
       transform="matrix(0.95345,0,0,0.95345,7440.8,4.441)" />
  </g>
</svg>